<?xml version="1.0" encoding="iso-8859-1"?>
<!-- Generator: Adobe Illustrator 19.0.0, SVG Export Plug-In . SVG Version: 6.00 Build 0)  -->
<svg version="1.1" id="Capa_1" xmlns="http://www.w3.org/2000/svg" xmlns:xlink="http://www.w3.org/1999/xlink" x="0px" y="0px"
	 viewBox="0 0 511.998 511.998" style="enable-background:new 0 0 511.998 511.998;" xml:space="preserve">
<g>
	<g>
		<path d="M93.888,0v108.465h57.791v32.925c0,4.693-3.819,8.512-8.512,8.512h-9.827c-21.176,0-38.404,17.229-38.404,38.404v323.692
			h322.128V188.306c0-21.177-17.229-38.404-38.405-38.404h-9.222c-4.694,0-8.512-3.819-8.512-8.512v-32.925h57.186V0H93.888z
			 M301.141,29.892h29.892v48.68h-29.892V29.892z M241.355,29.892h29.892v48.68h-29.892V29.892z M181.571,29.892h29.892v48.68
			h-29.892V29.892z M123.78,78.572v-48.68h27.899v48.68H123.78z M369.437,179.795h9.222c4.694,0,8.513,3.819,8.513,8.512v293.8
			H124.828v-293.8c0-4.694,3.819-8.512,8.512-8.512h9.827c21.176,0,38.404-17.229,38.404-38.404v-32.925h149.461v32.925
			C331.033,162.566,348.26,179.795,369.437,179.795z M388.218,78.572h-27.294v-48.68h27.294V78.572z"/>
	</g>
</g>
<g>
	<g>
		<path d="M154.72,247.905v204.311h203.202V247.905H154.72z M328.029,422.324H184.612V277.797h143.417V422.324z"/>
	</g>
</g>
<g>
	<g>
		<polygon points="270.887,335.114 270.887,311.08 240.995,311.08 240.995,335.114 216.96,335.114 216.96,365.007 240.995,365.007 
			240.995,389.041 270.887,389.041 270.887,365.007 294.921,365.007 294.921,335.114 		"/>
	</g>
</g>
<g>
</g>
<g>
</g>
<g>
</g>
<g>
</g>
<g>
</g>
<g>
</g>
<g>
</g>
<g>
</g>
<g>
</g>
<g>
</g>
<g>
</g>
<g>
</g>
<g>
</g>
<g>
</g>
<g>
</g>
</svg>
